<svg width="52" height="59" viewBox="0 0 52 59" fill="none" xmlns="http://www.w3.org/2000/svg">
<path d="M32.2098 5.65777V34.0071C32.2098 37.1347 29.3623 39.6648 25.8519 39.6648C22.3415 39.6648 19.4893 37.1347 19.4893 34.0071V5.65777C19.5146 4.62743 19.8251 3.62429 20.3863 2.75983C20.9475 1.89537 21.7374 1.20344 22.6682 0.760931C22.0498 1.38107 21.6994 2.21919 21.6926 3.09498V30.1699C21.6926 32.1538 23.4945 33.7597 25.7258 33.7597C27.9572 33.7597 29.7637 32.1538 29.7637 30.1699V3.09498C29.7601 2.61136 29.6524 2.13419 29.4478 1.69597C29.2432 1.25776 28.9465 0.868775 28.578 0.555534L28.5407 0.527527C29.2016 0.798683 29.8123 1.17898 30.3472 1.65254C30.925 2.14905 31.39 2.76322 31.7112 3.45394C32.0324 4.14467 32.2024 4.89604 32.2098 5.65777Z" fill="#FF4040"/>
<path d="M24.8016 0H24.8669V26.0246C24.8669 26.396 24.7194 26.7522 24.4567 27.0149C24.1941 27.2775 23.8379 27.425 23.4665 27.425H23.4011V1.40043C23.4011 1.02901 23.5487 0.672807 23.8113 0.410176C24.0739 0.147545 24.4301 0 24.8016 0V0Z" fill="#FF4040"/>
<path d="M26.3373 0H26.4027C26.7741 0 27.1303 0.147545 27.3929 0.410176C27.6556 0.672807 27.8031 1.02901 27.8031 1.40043V27.425H27.7378C27.3664 27.425 27.0101 27.2775 26.7475 27.0149C26.4849 26.7522 26.3373 26.396 26.3373 26.0246V0Z" fill="#FF4040"/>
<path d="M49.4818 20.7217H49.099C49.1845 21.0256 49.2285 21.3396 49.2297 21.6553C49.2297 24.3628 46.0927 26.5568 42.2276 26.5568C41.3551 26.5585 40.4866 26.4407 39.6461 26.2067C40.5834 28.1342 41.0733 30.2486 41.0792 32.3919C41.0792 40.6077 34.0771 47.2691 25.4411 47.2691C16.8051 47.2691 9.803 40.6077 9.803 32.3919C9.79783 30.2495 10.2765 28.1336 11.2034 26.202C10.4472 26.435 9.66065 26.5545 8.86938 26.5568C5.38698 26.5568 2.56746 24.3628 2.56746 21.6553C2.56856 21.3405 2.60775 21.027 2.68416 20.7217H2.33405C0.79198 24.2553 -0.00267529 28.0696 6.76661e-06 31.9251C6.76661e-06 46.863 11.6002 59 25.9079 59C40.2156 59 51.8158 46.863 51.8158 31.9251C51.8185 28.0696 51.0238 24.2553 49.4818 20.7217Z" fill="#FF4040"/>
</svg>
