<svg width="115" height="42" viewBox="0 0 115 42" fill="none" xmlns="http://www.w3.org/2000/svg">
<path d="M17.5605 23.666C17.5605 26.6309 16.9219 28.9863 15.6445 30.7324C14.3672 32.4785 12.627 33.3516 10.4238 33.3516C8.98242 33.3516 7.69922 33.0586 6.57422 32.4727C5.44922 31.8867 4.57031 31.0781 3.9375 30.0469V40.3125H2.98828V13.9805H3.9375V17.373C4.59375 16.166 5.47852 15.2402 6.5918 14.5957C7.70508 13.9512 8.9707 13.6289 10.3887 13.6289C12.6152 13.6289 14.3672 14.4844 15.6445 16.1953C16.9219 17.8945 17.5605 20.2852 17.5605 23.3672V23.666ZM16.5938 23.2969C16.5938 20.5664 16.0488 18.4336 14.959 16.8984C13.8809 15.3516 12.3633 14.5781 10.4062 14.5781C8.8125 14.5781 7.45898 14.9941 6.3457 15.8262C5.23242 16.6465 4.42969 17.8301 3.9375 19.377V28.2715C4.42969 29.584 5.23242 30.6035 6.3457 31.3301C7.4707 32.0449 8.83594 32.4023 10.4414 32.4023C12.3867 32.4023 13.8984 31.6289 14.9766 30.082C16.0547 28.5352 16.5938 26.2734 16.5938 23.2969ZM29.584 33.3516C28.0488 33.3516 26.6367 32.9414 25.3477 32.1211C24.0703 31.2891 23.0684 30.1523 22.3418 28.7109C21.6152 27.2695 21.252 25.6699 21.252 23.9121V23.1211C21.252 21.3633 21.6035 19.752 22.3066 18.2871C23.0098 16.8223 23.9766 15.6797 25.207 14.8594C26.4375 14.0391 27.7793 13.6289 29.2324 13.6289C31.3535 13.6289 33.0879 14.3848 34.4355 15.8965C35.7832 17.4082 36.457 19.3945 36.457 21.8555V22.8574H22.2012V23.8945C22.2012 25.4414 22.5234 26.877 23.168 28.2012C23.8242 29.5137 24.7207 30.5449 25.8574 31.2949C27.0059 32.0449 28.248 32.4199 29.584 32.4199C30.8613 32.4199 31.9453 32.209 32.8359 31.7871C33.7383 31.3535 34.5352 30.6914 35.2266 29.8008L35.8945 30.2754C34.4766 32.3262 32.373 33.3516 29.584 33.3516ZM29.2324 14.5781C27.3809 14.5781 25.8105 15.2695 24.5215 16.6523C23.2324 18.0234 22.4766 19.7754 22.2539 21.9082H35.5078V21.6797C35.5078 20.3906 35.2324 19.1953 34.6816 18.0938C34.1426 16.9805 33.3926 16.1191 32.4316 15.5098C31.4824 14.8887 30.416 14.5781 29.2324 14.5781ZM60.75 29.8359C59.8008 30.8906 58.4121 31.7402 56.584 32.3848C54.7559 33.0293 52.752 33.3516 50.5723 33.3516C47.2207 33.3516 44.543 32.3262 42.5391 30.2754C40.5352 28.2246 39.4629 25.3711 39.3223 21.7148L39.3047 19.5C39.3047 16.9805 39.75 14.7832 40.6406 12.9082C41.5312 11.0215 42.8027 9.57422 44.4551 8.56641C46.1191 7.54688 48.041 7.03711 50.2207 7.03711C53.4082 7.03711 55.8809 7.76953 57.6387 9.23438C59.4082 10.6875 60.4395 12.8613 60.7324 15.7559H54.791C54.5801 14.3262 54.123 13.3066 53.4199 12.6973C52.7168 12.0879 51.7207 11.7832 50.4316 11.7832C48.8848 11.7832 47.6895 12.4395 46.8457 13.752C46.002 15.0645 45.5742 16.9395 45.5625 19.377V20.9238C45.5625 23.4785 45.9961 25.4004 46.8633 26.6895C47.7422 27.9668 49.1191 28.6055 50.9941 28.6055C52.5996 28.6055 53.7949 28.248 54.5801 27.5332V23.5605H50.291V19.3242H60.75V29.8359ZM75.5684 19.3418L73.6172 19.2012C71.7539 19.2012 70.5586 19.7871 70.0312 20.959V33H64.1074V13.9805H69.6621L69.8555 16.4238C70.8516 14.5605 72.2402 13.6289 74.0215 13.6289C74.6543 13.6289 75.2051 13.6992 75.6738 13.8398L75.5684 19.3418ZM94.8867 23.3496C94.8867 20.3379 95.5371 17.9648 96.8379 16.2305C98.1387 14.4961 99.9551 13.6289 102.287 13.6289C103.986 13.6289 105.416 14.2969 106.576 15.6328V6H112.518V33H107.191L106.893 30.9609C105.674 32.5547 104.127 33.3516 102.252 33.3516C99.9902 33.3516 98.1973 32.4844 96.873 30.75C95.5488 29.0156 94.8867 26.5488 94.8867 23.3496ZM100.811 23.7188C100.811 27.0938 101.795 28.7812 103.764 28.7812C105.076 28.7812 106.014 28.2305 106.576 27.1289V19.8867C106.037 18.7617 105.111 18.1992 103.799 18.1992C101.971 18.1992 100.98 19.6758 100.828 22.6289L100.811 23.7188Z" fill="#F7E249"/>
<path d="M89.5627 9.1971L78.195 20.5338C77.7785 20.9491 78.0735 21.6593 78.6625 21.6593H83.0165L79.3457 32.1189C79.1135 32.7806 79.9401 33.2986 80.4372 32.8029L91.805 21.4662C92.2215 21.0508 91.9265 20.3407 91.3375 20.3407H86.9833L90.6542 9.88105C90.8865 9.21935 90.0599 8.70137 89.5627 9.1971Z" fill="#F7E249"/>
</svg>
