<svg width="16" height="16" viewBox="0 0 16 16" fill="none" xmlns="http://www.w3.org/2000/svg">
<path fill-rule="evenodd" clip-rule="evenodd" d="M1.70856 6.36575C1.47134 6.55552 1.33325 6.84283 1.33325 7.14661V13.666C1.33325 14.2183 1.78097 14.666 2.33325 14.666L5.99992 14.666V10.666C5.99992 9.56142 6.89535 8.66599 7.99992 8.66599C9.10449 8.66599 9.99992 9.56142 9.99992 10.666V14.666L13.6666 14.666C14.2189 14.666 14.6666 14.2183 14.6666 13.666V7.14661C14.6666 6.84283 14.5285 6.55552 14.2913 6.36575L8.62461 1.83241C8.2594 1.54024 7.74044 1.54024 7.37522 1.83241L1.70856 6.36575Z" fill="#051033" fill-opacity="0.01"/>
<mask id="mask0" mask-type="alpha" maskUnits="userSpaceOnUse" x="1" y="1" width="14" height="14">
<path fill-rule="evenodd" clip-rule="evenodd" d="M1.70856 6.36575C1.47134 6.55552 1.33325 6.84283 1.33325 7.14661V13.666C1.33325 14.2183 1.78097 14.666 2.33325 14.666L5.99992 14.666V10.666C5.99992 9.56142 6.89535 8.66599 7.99992 8.66599C9.10449 8.66599 9.99992 9.56142 9.99992 10.666V14.666L13.6666 14.666C14.2189 14.666 14.6666 14.2183 14.6666 13.666V7.14661C14.6666 6.84283 14.5285 6.55552 14.2913 6.36575L8.62461 1.83241C8.2594 1.54024 7.74044 1.54024 7.37522 1.83241L1.70856 6.36575Z" fill="white"/>
</mask>
<g mask="url(#mask0)">
<path fill-rule="evenodd" clip-rule="evenodd" d="M0 0H16V16H0V0Z" fill="#182C4F"/>
</g>
</svg>
