<svg width="16" height="16" viewBox="0 0 16 16" fill="none" xmlns="http://www.w3.org/2000/svg">
<path fill-rule="evenodd" clip-rule="evenodd" d="M7.99992 14.6673C11.6818 14.6673 14.6666 11.6825 14.6666 8.00065C14.6666 4.31875 11.6818 1.33398 7.99992 1.33398C4.31802 1.33398 1.33325 4.31875 1.33325 8.00065C1.33325 11.6825 4.31802 14.6673 7.99992 14.6673ZM4.71717 8.25584C4.68458 8.17724 4.66658 8.09104 4.66658 8.00065C4.66658 7.91026 4.68458 7.82407 4.71717 7.74546C4.7497 7.66683 4.79793 7.59316 4.86185 7.52925L7.52851 4.86258C7.78886 4.60223 8.21097 4.60223 8.47132 4.86258C8.73167 5.12293 8.73167 5.54504 8.47132 5.80539L6.94273 7.33398H10.6666C11.0348 7.33398 11.3333 7.63246 11.3333 8.00065C11.3333 8.36884 11.0348 8.66732 10.6666 8.66732H6.94273L8.47132 10.1959C8.73167 10.4563 8.73167 10.8784 8.47132 11.1387C8.21097 11.3991 7.78886 11.3991 7.52851 11.1387L4.86251 8.47272L4.86185 8.47205M4.85751 8.46768C4.79575 8.40479 4.74896 8.33268 4.71717 8.25584L4.85751 8.46768Z" fill="#051033" fill-opacity="0.01"/>
<mask id="mask0" mask-type="alpha" maskUnits="userSpaceOnUse" x="1" y="1" width="14" height="14">
<path fill-rule="evenodd" clip-rule="evenodd" d="M7.99992 14.6673C11.6818 14.6673 14.6666 11.6825 14.6666 8.00065C14.6666 4.31875 11.6818 1.33398 7.99992 1.33398C4.31802 1.33398 1.33325 4.31875 1.33325 8.00065C1.33325 11.6825 4.31802 14.6673 7.99992 14.6673ZM4.71717 8.25584C4.68458 8.17724 4.66658 8.09104 4.66658 8.00065C4.66658 7.91026 4.68458 7.82407 4.71717 7.74546C4.7497 7.66683 4.79793 7.59316 4.86185 7.52925L7.52851 4.86258C7.78886 4.60223 8.21097 4.60223 8.47132 4.86258C8.73167 5.12293 8.73167 5.54504 8.47132 5.80539L6.94273 7.33398H10.6666C11.0348 7.33398 11.3333 7.63246 11.3333 8.00065C11.3333 8.36884 11.0348 8.66732 10.6666 8.66732H6.94273L8.47132 10.1959C8.73167 10.4563 8.73167 10.8784 8.47132 11.1387C8.21097 11.3991 7.78886 11.3991 7.52851 11.1387L4.86251 8.47272L4.86185 8.47205M4.85751 8.46768C4.79575 8.40479 4.74896 8.33268 4.71717 8.25584L4.85751 8.46768Z" fill="white"/>
</mask>
<g mask="url(#mask0)">
<path fill-rule="evenodd" clip-rule="evenodd" d="M0 0H16V16H0V0Z" fill="#C9CED6"/>
</g>
</svg>
