<svg width="11" height="10" viewBox="0 0 11 10" fill="none" xmlns="http://www.w3.org/2000/svg">
<path d="M3.75762 0.00385813C3.70104 0.0185835 3.65782 0.0753562 3.65821 0.133906V1.06362C3.65821 1.24724 3.75521 1.4101 3.90267 1.50566V1.68072V2.21404C3.93229 2.63669 4.0947 2.93214 4.32157 3.11374C4.29498 3.32332 4.20479 3.44438 4.0546 3.55578C3.87707 3.68747 3.61894 3.79007 3.34622 3.90653C3.0735 4.02302 2.78368 4.16266 2.56093 4.40921C2.33819 4.65577 2.19505 5.00145 2.19517 5.49961V5.59089L2.27145 5.62153H4.38347L4.62293 4.30855C4.53387 4.19485 4.44494 4.07167 4.44474 3.91903C4.44472 3.54869 4.75157 3.24129 5.12187 3.24129V3.24191C5.49216 3.24191 5.79902 3.54932 5.79899 3.91966C5.79865 4.06653 5.7223 4.19203 5.6358 4.3098L5.87026 5.62153H7.97228L8.04856 5.59089V5.49961C8.04856 5.01329 7.90403 4.67083 7.6828 4.43235C7.46157 4.19389 7.17492 4.06597 6.90564 3.95217C6.63636 3.83837 6.37924 3.73667 6.20413 3.60142C6.03225 3.46863 5.93324 3.31597 5.92966 3.02246C6.16649 2.82664 6.33076 2.55064 6.34106 2.21404V1.68072V1.46752V1.02548C6.3411 0.599821 6.01873 0.247697 5.60954 0.247697H5.25879H4.14651C4.06285 0.247697 3.99366 0.234332 3.96332 0.217686C3.93297 0.20072 3.92518 0.198185 3.92518 0.133906C3.92592 0.0521797 3.83651 -0.0173656 3.75762 0.00385813ZM5.12187 3.5614C4.92454 3.5614 4.76485 3.72106 4.76486 3.91841C4.765 4.02232 4.80965 4.11357 4.88553 4.18038C4.89131 4.1871 4.9763 4.24811 4.93805 4.36607L4.64357 5.98041L5.12187 6.22738L5.60954 5.98291L5.32069 4.36607C5.28251 4.22359 5.37071 4.18038 5.37071 4.18038C5.43882 4.11421 5.47865 4.01595 5.47887 3.91841C5.47889 3.72106 5.31919 3.5614 5.12187 3.5614ZM4.64544 4.35669C4.64715 4.36704 4.64461 4.37778 4.64857 4.38483C4.65649 4.39923 4.66367 4.40783 4.6692 4.41359C4.66955 4.41679 4.67013 4.41672 4.67045 4.41672C4.67014 4.4164 4.67436 4.42069 4.6742 4.42047C4.65688 4.40522 4.66079 4.37411 4.64544 4.35669ZM5.60579 4.38233C5.60506 4.3845 5.60508 4.38689 5.60329 4.38921C5.6039 4.386 5.60459 4.38608 5.60517 4.38608C5.60606 4.38448 5.60576 4.38328 5.60579 4.38233ZM4.96181 6.50498V6.79133H1.81379C1.59999 6.79133 1.42552 6.97034 1.42552 7.18335V8.05742H1.74564V7.18335C1.74564 7.13921 1.77477 7.11145 1.81379 7.11145H4.96181V8.04929H5.28192V7.11145H8.42995C8.46896 7.11145 8.4981 7.1393 8.4981 7.18335V8.05679H8.81821V7.18335C8.81821 6.97034 8.64374 6.79133 8.42995 6.79133H5.28192V6.50498L5.11937 6.58626L4.96181 6.50498ZM0.264471 8.2925C0.118089 8.2925 0 8.40122 0 8.53634V9.75616C0 9.89128 0.118089 10 0.264471 10H2.90668C3.05307 10 3.17053 9.89128 3.17053 9.75616V8.53634C3.17053 8.40122 3.05307 8.2925 2.90668 8.2925H0.264471ZM3.90267 8.2925C3.76755 8.2925 3.65821 8.40122 3.65821 8.53634V9.75616C3.65821 9.89128 3.76755 10 3.90267 10H6.34106C6.47618 10 6.58552 9.89128 6.58552 9.75616V8.53634C6.58552 8.40122 6.47618 8.2925 6.34106 8.2925H3.90267ZM7.33705 8.2925C7.19067 8.2925 7.0732 8.40122 7.0732 8.53634V9.75616C7.0732 9.89128 7.19067 10 7.33705 10H9.97926C10.1256 10 10.2437 9.89128 10.2437 9.75616V8.53634C10.2437 8.40122 10.1256 8.2925 9.97926 8.2925H7.33705Z" fill="white"/>
</svg>
