<svg width="22" height="22" viewBox="0 0 22 22" fill="none" xmlns="http://www.w3.org/2000/svg">
<path d="M17.3521 11.5055L19.8979 10.4231C20.1339 10.3224 20.2435 10.0494 20.1428 9.81348C20.1028 9.71976 20.033 9.64177 19.9444 9.59154L18.6808 8.86682L19.9211 8.34187C20.1571 8.24117 20.2668 7.96818 20.166 7.73225C20.126 7.63852 20.0563 7.56053 19.9676 7.5103L18.6808 6.78558L19.9211 6.26063C20.1571 6.15993 20.2668 5.88695 20.166 5.65101C20.126 5.55728 20.0563 5.47929 19.9676 5.42906L18.6808 4.70434L19.9211 4.17939C20.1571 4.0787 20.2668 3.80571 20.166 3.56977C20.126 3.47604 20.0563 3.39805 19.9676 3.34782L14.1002 0.0587217C13.9761 -0.0103819 13.8272 -0.0189763 13.696 0.0354936L9.35235 1.81477C9.29979 1.81686 9.24794 1.82783 9.19904 1.84729L6.54639 2.96224L1.09707 5.19678C0.857999 5.28998 0.739768 5.55931 0.83297 5.79833C0.870426 5.89444 0.938833 5.97539 1.02739 6.02835L2.30494 6.78094L1.09707 7.28267C0.859044 7.37842 0.743658 7.64897 0.839416 7.887C0.876581 7.97945 0.942491 8.05744 1.02739 8.10959L2.30494 8.86218L1.08778 9.3639C0.849927 9.46013 0.73518 9.73097 0.831403 9.96882C0.869903 10.0639 0.938833 10.1436 1.02739 10.1955L2.30494 10.9481L1.09707 11.4637C0.862122 11.5667 0.755098 11.8408 0.858115 12.0757C0.894002 12.1576 0.952769 12.2274 1.02733 12.2767L2.44889 13.1129V19.6168C2.44889 21.1638 5.12013 22 7.63341 22C9.32906 22 11.0898 21.6191 12.0607 20.8943C12.9898 21.5726 14.6344 22 16.4973 22C19.0105 22 21.6818 21.1638 21.6818 19.6168V13.8562C21.6865 12.4811 19.582 11.6728 17.3521 11.5055ZM15.2384 11.3987V10.3255L17.589 9.32674L18.6808 9.93996L15.2384 11.3987ZM15.2384 9.31745V8.24431L17.589 7.2455L18.6808 7.85872L15.2384 9.31745ZM15.2384 7.23621V6.15842L17.589 5.15962L18.6808 5.77748L15.2384 7.23621ZM13.8447 0.978555L18.6808 3.6916L14.8017 5.3315L10.3976 2.39082L13.8447 0.978555ZM6.64395 3.92853L11.0991 6.90172L7.18284 8.56486L2.31423 5.70315L6.64395 3.92853ZM3.32233 7.37093L6.91339 9.48469C7.04045 9.55989 7.19562 9.57023 7.3315 9.51256L11.6101 7.69613V8.76926L9.42668 9.69839C8.16678 9.4963 6.88169 9.51047 5.62656 9.7402L2.31423 7.78439L3.32233 7.37093ZM11.6055 9.77736V10.3674C11.3851 10.2523 11.1569 10.153 10.9226 10.07L11.6055 9.77736ZM2.45824 11.9283V12.0258L2.31423 11.9422L2.46289 11.8818L2.45824 11.9283ZM2.31423 9.86099L3.32233 9.44753L4.36295 10.07C4.03764 10.1915 3.72615 10.3471 3.43382 10.5346L2.31423 9.86099ZM11.8935 19.6168C11.8935 20.2114 10.235 21.0709 7.63811 21.0709C5.04121 21.0709 3.38272 20.2114 3.38272 19.6168V19.0965C4.38153 19.7422 6.04002 20.0814 7.63811 20.0814C9.23621 20.0814 10.89 19.7422 11.8935 19.0965V19.6168ZM11.8935 17.6982C11.8935 18.2928 10.235 19.1522 7.63811 19.1522C5.04121 19.1522 3.38272 18.2928 3.38272 17.6982V17.1778C4.38153 17.8236 6.04002 18.1627 7.63811 18.1627C9.23621 18.1627 10.89 17.8236 11.8935 17.1778V17.6982ZM11.8935 15.7795C11.8935 16.3741 10.235 17.2336 7.63811 17.2336C5.04121 17.2336 3.38272 16.3741 3.38272 15.7795V15.2592C4.38153 15.9049 6.04002 16.2441 7.63811 16.2441C9.23621 16.2441 10.89 15.9049 11.8935 15.2592V15.7795ZM11.8935 13.8609C11.8935 14.4555 10.235 15.3149 7.63811 15.3149C5.04121 15.3149 3.38272 14.4509 3.38272 13.8609V13.322C4.38153 13.9677 6.04002 14.3068 7.63811 14.3068C9.23621 14.3068 10.89 13.9677 11.8935 13.322V13.8609ZM7.64276 13.3917L7.63811 13.3963C5.04121 13.3963 3.38272 12.5322 3.38272 11.9422C3.38272 11.3522 5.04121 10.4881 7.63811 10.4881C10.235 10.4881 11.8981 11.3429 11.8981 11.9283C11.8981 12.5136 10.2397 13.3917 7.64276 13.3917ZM12.3302 6.60905L7.68457 3.50577L9.36164 2.81822L14.2999 6.11197V11.6867C13.7936 11.7873 13.2997 11.9431 12.8273 12.1513V11.9283C12.8236 11.6301 12.7225 11.3413 12.5392 11.106V6.99464C12.5384 6.83924 12.46 6.69453 12.3302 6.60905ZM20.7573 19.6168C20.7573 20.2114 19.0989 21.0709 16.502 21.0709C14.6809 21.0709 13.3336 20.6481 12.6833 20.1929C12.7731 20.014 12.8208 19.817 12.8226 19.6168V19.4124C13.9911 19.8825 15.2428 20.11 16.502 20.0814C18.1001 20.0814 19.7539 19.7422 20.7573 19.0965V19.6168ZM20.7573 17.6982C20.7573 18.2928 19.0989 19.1522 16.502 19.1522C15.2289 19.1996 13.9641 18.9281 12.8226 18.3625V17.503C13.9911 17.9731 15.2428 18.2007 16.502 18.172C18.1001 18.172 19.7539 17.8329 20.7573 17.1871V17.6982ZM20.7573 15.7795C20.7573 16.3741 19.0989 17.2336 16.502 17.2336C15.2289 17.2811 13.9641 17.0097 12.8226 16.4438V15.5705C13.9911 16.0405 15.2428 16.2681 16.502 16.2394C18.1001 16.2394 19.7539 15.9003 20.7573 15.2546V15.7795ZM16.502 15.3149C15.2289 15.3625 13.9641 15.091 12.8226 14.5252V13.1919C13.9634 12.6232 15.2281 12.3486 16.502 12.3928C19.0989 12.3928 20.7573 13.2569 20.7573 13.8469C20.7573 14.4369 19.1035 15.3149 16.502 15.3149Z" fill="#161515"/>
</svg>
