<svg width="35" height="21" viewBox="0 0 35 21" fill="none" xmlns="http://www.w3.org/2000/svg">
<path d="M10.3446 0C4.62828 0.0360581 0 4.68689 0 10.4114C0 16.1583 4.66403 20.822 10.4114 20.822C13.1074 20.822 15.5663 19.7944 17.4162 18.1094L17.4159 18.109H17.4173C17.7968 17.7639 18.1502 17.3905 18.4747 16.994H16.3421C16.0571 16.6503 15.7981 16.2911 15.5656 15.921H19.2438C19.4685 15.5634 19.6702 15.1918 19.8509 14.807H14.959C14.792 14.4494 14.6471 14.0849 14.5237 13.7133H20.2862C20.6343 12.6754 20.822 11.5646 20.822 10.4114C20.822 9.64536 20.7387 8.90006 20.5824 8.18118H14.2179C14.2973 7.81106 14.3964 7.4459 14.5144 7.0879H20.2798C20.151 6.70595 20.0012 6.3344 19.8309 5.97315H14.9584C15.134 5.59731 15.3332 5.23291 15.5554 4.87948H19.2314C18.9864 4.48933 18.716 4.11673 18.4237 3.7655H16.3741C16.6914 3.39175 17.0398 3.04023 17.4179 2.71437C15.5686 1.02861 13.1095 0.000286018 10.412 0.000286018C10.3886 -1.57203e-07 10.3664 0 10.3446 0Z" fill="#931B1D"/>
<path d="M34.8813 10.4119C34.8823 16.1596 30.2237 20.8203 24.4723 20.822C18.7233 20.8238 14.061 16.1649 14.0593 10.4162V10.4119C14.0575 4.66251 18.7176 0.00143122 24.4677 7.08301e-07C30.2173 -0.00209737 34.8799 4.65717 34.8814 10.4062C34.8813 10.4062 34.8813 10.4088 34.8813 10.4119Z" fill="#F16622"/>
<path d="M34.8813 10.5004C34.8823 16.2976 30.2237 20.9989 24.4723 21C18.7233 21.0021 14.061 16.3027 14.0593 10.5058V10.5004C14.0575 4.70281 18.7176 0.00144347 24.4677 7.14365e-07C30.2173 -0.00211533 34.8799 4.69704 34.8814 10.4949C34.8813 10.495 34.8813 10.4983 34.8813 10.5004Z" fill="#F7981D"/>
<path d="M10.3446 9.61508e-05C4.62828 0.0371345 0 4.72648 0 10.5C0 16.2963 4.66403 21 10.4114 21C13.1074 21 15.5663 19.9629 17.4162 18.2639L17.4159 18.2628H17.4173C17.7968 17.915 18.1502 17.5396 18.4747 17.1383H16.3421C16.0571 16.7923 15.7981 16.4309 15.5656 16.0576H19.2438C19.4685 15.6966 19.6702 15.3208 19.8509 14.9331H14.959C14.792 14.5721 14.6471 14.2046 14.5237 13.8305H20.2862C20.6343 12.783 20.822 11.6631 20.822 10.5C20.822 9.72792 20.7387 8.97589 20.5824 8.25129H14.2179C14.2973 7.8784 14.3964 7.50937 14.5144 7.1487H20.2798C20.151 6.76321 20.0012 6.3884 19.8309 6.02379H14.9584C15.134 5.64619 15.3332 5.27725 15.5554 4.9212H19.2314C18.9864 4.52811 18.716 4.15263 18.4237 3.79696H16.3741C16.6914 3.42081 17.0398 3.0662 17.4179 2.7369C15.5686 1.03707 13.1095 0 10.412 0C10.3886 9.62036e-05 10.3664 9.61508e-05 10.3446 9.61508e-05Z" fill="#CB2026"/>
<path d="M14.1781 13.1861L14.3179 12.2378C14.2418 12.2378 14.1296 12.2702 14.0308 12.2702C13.6435 12.2702 13.6004 12.0639 13.6255 11.9113L13.9385 9.97574H14.5274L14.6697 8.92621H14.1146L14.2278 8.27441H13.114C13.0899 8.2988 12.4565 11.9439 12.4565 12.3869C12.4565 13.044 12.8241 13.3368 13.3436 13.3325C13.7495 13.3288 14.0667 13.2163 14.1781 13.1861Z" fill="white"/>
<path d="M14.5317 11.3779C14.5317 12.9548 15.5697 13.3299 16.4547 13.3299C17.2717 13.3299 17.6307 13.1463 17.6307 13.1463L17.8272 12.0699C17.8272 12.0699 17.2061 12.3459 16.6448 12.3459C15.4494 12.3459 15.6589 11.452 15.6589 11.452H17.9221C17.9221 11.452 18.0676 10.7284 18.0676 10.4338C18.0676 9.699 17.7018 8.80292 16.4798 8.80292C15.3599 8.80321 14.5317 10.0115 14.5317 11.3779ZM16.4845 9.80165C17.1126 9.80165 16.9965 10.5094 16.9965 10.5666H15.7605C15.7602 10.4937 15.877 9.80165 16.4845 9.80165Z" fill="white"/>
<path d="M23.5339 13.1861L23.7333 11.9684C23.7333 11.9684 23.1869 12.2444 22.8121 12.2444C22.0224 12.2444 21.7058 11.6386 21.7058 10.9905C21.7058 9.67255 22.3853 8.94748 23.1423 8.94748C23.7093 8.94748 24.1649 9.26723 24.1649 9.26723L24.3464 8.08587C24.3464 8.08587 23.6712 7.81134 23.0928 7.81134C21.8072 7.81134 20.5562 8.9277 20.5562 11.0281C20.5562 12.4186 21.232 13.3387 22.5606 13.3387C22.936 13.3389 23.5339 13.1861 23.5339 13.1861Z" fill="white"/>
<path d="M8.05464 8.82001C7.29117 8.82001 6.70582 9.06544 6.70582 9.06544L6.5445 10.0269C6.5445 10.0269 7.02807 9.83074 7.75784 9.83074C8.17247 9.83074 8.47532 9.87712 8.47532 10.2152C8.47532 10.42 8.43835 10.4958 8.43835 10.4958C8.43835 10.4958 8.11178 10.4681 7.96016 10.4681C6.99763 10.4681 5.98584 10.8799 5.98584 12.1223C5.98584 13.1003 6.64907 13.3252 7.06052 13.3252C7.84628 13.3252 8.18399 12.8146 8.20271 12.8124L8.16603 13.2393H9.14623L9.5838 10.1655C9.5838 8.86197 8.44872 8.82001 8.05464 8.82001ZM8.29355 11.3214C8.31477 11.5093 8.17573 12.3895 7.5053 12.3895C7.15962 12.3895 7.06945 12.1244 7.06945 11.9677C7.06945 11.6627 7.23509 11.2959 8.05138 11.2959C8.24074 11.2959 8.26119 11.3167 8.29355 11.3214Z" fill="white"/>
<path d="M10.6262 13.3019C10.8766 13.3019 12.3102 13.3662 12.3102 11.8837C12.3102 10.4975 10.9834 10.771 10.9834 10.2141C10.9834 9.93781 11.1997 9.84937 11.5949 9.84937C11.7519 9.84937 12.3559 9.90007 12.3559 9.90007L12.4967 8.91421C12.4967 8.91421 12.1058 8.82721 11.4699 8.82721C10.6453 8.82721 9.80992 9.15561 9.80992 10.2834C9.80992 11.5621 11.204 11.4328 11.204 11.971C11.204 12.3303 10.8141 12.3598 10.5138 12.3598C9.99495 12.3598 9.52752 12.1812 9.52531 12.1894L9.37695 13.1642C9.40288 13.1733 9.69171 13.3019 10.6262 13.3019Z" fill="white"/>
<path d="M32.757 7.93575L32.5173 9.429C32.5173 9.429 32.098 8.8495 31.4423 8.8495C30.4216 8.8495 29.5715 10.0819 29.5715 11.4986C29.5715 12.413 30.0246 13.308 30.9523 13.308C31.6195 13.308 31.9885 12.842 31.9885 12.842L31.94 13.2397H33.023L33.8741 7.93335L32.757 7.93575ZM32.2403 10.8486C32.2403 11.4375 31.9486 12.2239 31.3453 12.2239C30.9443 12.2239 30.7571 11.8869 30.7571 11.358C30.7571 10.4935 31.1445 9.9215 31.633 9.9215C32.0344 9.92159 32.2403 10.1982 32.2403 10.8486Z" fill="white"/>
<path d="M2.02525 13.2444L2.70394 9.23825L2.80275 13.2444H3.57016L5.00118 9.23825L4.36705 13.2444H5.50674L6.38525 7.93225H4.62228L3.52464 11.1911L3.46751 7.93225H1.8431L0.952393 13.2444H2.02525Z" fill="white"/>
<path d="M19.1812 13.2519C19.5053 11.4055 19.5653 9.90543 20.3392 10.1789C20.4747 9.46459 20.6051 9.18834 20.7524 8.88548C20.7524 8.88548 20.6835 8.87079 20.5375 8.87079C20.0399 8.87079 19.6701 9.55341 19.6701 9.55341L19.7686 8.92677H18.7316L18.0378 13.2519H19.1812Z" fill="white"/>
<path d="M26.1032 8.82001C25.3398 8.82001 24.7548 9.06544 24.7548 9.06544L24.5939 10.0269C24.5939 10.0269 25.0764 9.83074 25.8068 9.83074C26.2211 9.83074 26.5247 9.87712 26.5247 10.2152C26.5247 10.42 26.4873 10.4958 26.4873 10.4958C26.4873 10.4958 26.1607 10.4681 26.008 10.4681C25.0451 10.4681 24.0344 10.8799 24.0344 12.1223C24.0344 13.1003 24.698 13.3252 25.1091 13.3252C25.8949 13.3252 26.233 12.8146 26.2509 12.8124L26.2146 13.2393H27.1955L27.6328 10.1655C27.6332 8.86197 26.4985 8.82001 26.1032 8.82001ZM26.3425 11.3214C26.3637 11.5093 26.2254 12.3895 25.5539 12.3895C25.2086 12.3895 25.1191 12.1244 25.1191 11.9677C25.1191 11.6627 25.2847 11.2959 26.0996 11.2959C26.2901 11.2959 26.3099 11.3167 26.3425 11.3214Z" fill="white"/>
<path d="M28.5284 13.2519C28.8529 11.4055 28.9129 9.90543 29.6867 10.1789C29.8222 9.46459 29.9526 9.18834 30.1007 8.88548C30.1007 8.88548 30.0306 8.87079 29.8855 8.87079C29.3865 8.87079 29.0178 9.55341 29.0178 9.55341L29.117 8.92677H28.0794L27.3853 13.2516H28.5285L28.5284 13.2519Z" fill="white"/>
</svg>
