<svg width="30" height="26" viewBox="0 0 30 26" fill="none" xmlns="http://www.w3.org/2000/svg">
<path d="M21.7388 0.748378L21.1775 1.30791L19.9413 0.0725646L18.775 1.23797L17.537 0L0.373291 17.1663L9.1335 25.9266L10.2998 24.762L11.5378 26L12.7171 24.8197L13.3353 25.4378L29.88 8.88961L21.7388 0.748378ZM9.13263 24.6886L1.61039 17.1663L17.5379 1.23622L18.1577 1.85608L2.77754 17.238L9.6808 24.1413L9.13263 24.6886ZM5.19141 17.2949L12.0964 24.199L11.536 24.7603L4.01289 17.238L19.9413 1.30879L20.5594 1.92602L5.19141 17.2949ZM20.3242 15.8812C18.7837 17.4225 16.2877 17.4225 14.7472 15.8812C13.2067 14.3407 13.2067 11.8455 14.7472 10.3051C16.2877 8.76371 18.7846 8.76459 20.3242 10.3051C21.8647 11.8455 21.8647 14.3407 20.3242 15.8812ZM16.5403 11.6672L17.4985 12.6254L17.6472 12.4872C18.1543 12.0326 18.5625 11.7922 18.8712 11.7651C19.1806 11.738 19.5234 11.912 19.8993 12.2879C20.3041 12.6918 20.4956 13.0678 20.4746 13.4148C20.4527 13.7611 20.2149 14.1615 19.7577 14.6205L19.6283 14.7542L20.0567 15.1826L19.6213 15.6198L19.1929 15.1914L19.0679 15.312C18.6124 15.7675 18.2137 16.0106 17.8727 16.0394C17.5318 16.0674 17.1672 15.889 16.7816 15.5052L16.654 15.3723L17.2983 14.7271L17.3648 14.7918C17.6017 15.0287 17.7897 15.1415 17.9331 15.1354C18.0764 15.1302 18.2793 14.9964 18.5389 14.7359L18.6377 14.6432L17.5991 13.6046C17.0903 14.1134 16.6706 14.3879 16.3358 14.4246C16.0027 14.464 15.6337 14.2812 15.2298 13.8765C14.839 13.4857 14.6642 13.1255 14.7044 12.7924C14.7472 12.461 15.0217 12.0414 15.5288 11.5352L15.1564 11.1627L15.5926 10.7273L15.9651 11.0998C16.4503 10.6154 16.8498 10.3531 17.1672 10.3138C17.4828 10.2736 17.8299 10.4423 18.2058 10.8183L18.2941 10.9057L17.669 11.5308L17.5973 11.4643C17.3141 11.1811 16.9958 11.216 16.6383 11.571L16.5403 11.6672ZM16.1015 12.1008L16.0105 12.1961C15.6267 12.579 15.5891 12.9226 15.8881 13.226C16.2046 13.5425 16.5587 13.5119 16.9355 13.1316C16.9399 13.1263 16.9731 13.0966 17.0361 13.0407L16.1015 12.1008ZM19.0749 14.2008L19.1684 14.1099C19.5837 13.692 19.6125 13.3091 19.2558 12.9532C19.0609 12.7574 18.8869 12.6761 18.7313 12.7058C18.5774 12.7364 18.3536 12.8973 18.0616 13.1902L19.0749 14.2008Z" fill="#F7C92B"/>
</svg>
