<svg width="79" height="94" viewBox="0 0 79 94" fill="none" xmlns="http://www.w3.org/2000/svg">
<path d="M38.773 45.2799C44.9936 45.2799 50.3802 43.0489 54.7814 38.6469C59.1826 34.2457 61.4137 28.8606 61.4137 22.6392C61.4137 16.4201 59.1826 11.0342 54.7807 6.63156C50.3788 2.23108 44.9929 0 38.773 0C32.5517 0 27.1665 2.23108 22.7653 6.63228C18.3641 11.0335 16.1323 16.4193 16.1323 22.6392C16.1323 28.8606 18.3641 34.2465 22.766 38.6477C27.168 43.0481 32.5538 45.2799 38.773 45.2799Z" fill="black"/>
<path d="M78.3884 72.2809C78.2614 70.4493 78.0047 68.4513 77.6267 66.3414C77.2452 64.2157 76.754 62.2063 76.1659 60.3696C75.5585 58.4713 74.7323 56.5966 73.7111 54.8002C72.6511 52.9356 71.4061 51.3119 70.0091 49.9758C68.5482 48.5781 66.7596 47.4543 64.6914 46.6346C62.6302 45.8192 60.3461 45.4061 57.9027 45.4061C56.9432 45.4061 56.0152 45.7998 54.223 46.9666C53.12 47.686 51.8298 48.5179 50.3898 49.438C49.1584 50.2225 47.4903 50.9576 45.4299 51.6232C43.4197 52.2736 41.3787 52.6035 39.3642 52.6035C37.3497 52.6035 35.3094 52.2736 33.297 51.6232C31.2388 50.9584 29.5707 50.2233 28.3408 49.4387C26.9143 48.5272 25.6235 47.6953 24.504 46.9659C22.7139 45.7991 21.7852 45.4054 20.8257 45.4054C18.3816 45.4054 16.0982 45.8192 14.0378 46.6353C11.9709 47.4536 10.1816 48.5774 8.71932 49.9766C7.32301 51.3133 6.07731 52.9363 5.01878 54.8002C3.99826 56.5966 3.1721 58.4706 2.56395 60.3703C1.9766 62.207 1.48534 64.2157 1.10381 66.3414C0.725872 68.4484 0.469129 70.4471 0.342192 72.2831C0.217407 74.0817 0.154297 75.9484 0.154297 77.8339C0.154297 82.7407 1.71412 86.713 4.79001 89.6426C7.82789 92.5334 11.8476 94 16.7357 94H61.997C66.8851 94 70.9034 92.5342 73.942 89.6426C77.0186 86.7151 78.5784 82.7421 78.5784 77.8331C78.5777 75.9391 78.5139 74.0709 78.3884 72.2809Z" fill="black"/>
</svg>
