<svg width="51" height="60" viewBox="0 0 51 60" fill="none" xmlns="http://www.w3.org/2000/svg">
<path d="M24.6506 28.9023C28.6212 28.9023 32.059 27.4782 34.8688 24.6684C37.6776 21.8591 39.1022 18.4218 39.1022 14.4507C39.1022 10.481 37.6781 7.04316 34.8683 4.23294C32.0586 1.4241 28.6208 0 24.6506 0C20.6795 0 17.2421 1.4241 14.4328 4.2334C11.6235 7.0427 10.199 10.4805 10.199 14.4507C10.199 18.4218 11.6235 21.8596 14.4328 24.6689C17.243 27.4777 20.6809 28.9023 24.6506 28.9023ZM16.9194 6.71952C19.075 4.56391 21.6037 3.51609 24.6506 3.51609C27.697 3.51609 30.2262 4.56391 32.3822 6.71952C34.5378 8.87559 35.5861 11.4047 35.5861 14.4507C35.5861 17.4976 34.5378 20.0263 32.3822 22.1823C30.2262 24.3384 27.697 25.3862 24.6506 25.3862C21.6046 25.3862 19.0759 24.3379 16.9194 22.1823C14.7633 20.0267 13.7151 17.4976 13.7151 14.4507C13.7151 11.4047 14.7633 8.87559 16.9194 6.71952Z" fill="black"/>
<path d="M49.937 46.1371C49.856 44.9679 49.6921 43.6926 49.4509 42.3459C49.2073 40.9891 48.8938 39.7064 48.5184 38.5341C48.1302 37.3224 47.6033 36.1258 46.951 34.9791C46.2749 33.7889 45.4802 32.7525 44.5885 31.8997C43.656 31.0075 42.5144 30.2902 41.1942 29.767C39.8786 29.2465 38.4206 28.9828 36.861 28.9828C36.2485 28.9828 35.6562 29.2341 34.5122 29.9789C33.8082 30.4381 32.9846 30.9691 32.0655 31.5564C31.2795 32.0572 30.2147 32.5264 28.8996 32.9512C27.6164 33.3664 26.3137 33.5769 25.0273 33.5769C23.7419 33.5769 22.4391 33.3664 21.1551 32.9512C19.8413 32.5268 18.7761 32.0576 17.9915 31.5568C17.081 30.975 16.257 30.444 15.5425 29.9785C14.3994 29.2337 13.8071 28.9824 13.1946 28.9824C11.6345 28.9824 10.177 29.2465 8.86185 29.7674C7.54258 30.2897 6.40046 31.0071 5.46708 31.9001C4.57535 32.7534 3.78067 33.7893 3.10501 34.9791C2.45362 36.1258 1.92627 37.3219 1.53809 38.5345C1.16318 39.7069 0.84961 40.9891 0.60608 42.3459C0.36438 43.6908 0.200958 44.9666 0.119934 46.1384C0.0402832 47.2842 0 48.4767 0 49.6815C0 52.8136 0.995637 55.3491 2.95899 57.2191C4.89808 59.0643 7.46339 60 10.584 60H39.4744C42.594 60 45.1593 59.0643 47.0989 57.2191C49.0627 55.3505 50.0583 52.814 50.0583 49.6811C50.0579 48.4721 50.0171 47.2796 49.937 46.1371ZM44.6746 54.6716C43.3933 55.8911 41.6922 56.4839 39.4739 56.4839H10.584C8.36518 56.4839 6.66413 55.8911 5.38331 54.6721C4.12674 53.4759 3.51609 51.8431 3.51609 49.6815C3.51609 48.5573 3.55316 47.4472 3.62732 46.3815C3.69965 45.336 3.84751 44.1874 4.06678 42.9671C4.2833 41.7618 4.55887 40.6306 4.88663 39.6066C5.20112 38.6247 5.63004 37.6524 6.16196 36.7158C6.66962 35.8232 7.25373 35.0573 7.89826 34.4403C8.50114 33.863 9.26102 33.3906 10.1564 33.0363C10.9845 32.7086 11.9151 32.5291 12.9254 32.5021C13.0486 32.5676 13.2678 32.6925 13.6231 32.9242C14.3459 33.3952 15.179 33.9326 16.1 34.5208C17.1382 35.1828 18.4758 35.7806 20.0739 36.2965C21.7076 36.8248 23.3739 37.093 25.0278 37.093C26.6817 37.093 28.3484 36.8248 29.9813 36.297C31.5807 35.7802 32.9178 35.1828 33.9574 34.5199C34.8999 33.9175 35.7097 33.3957 36.4325 32.9242C36.7878 32.693 37.007 32.5676 37.1302 32.5021C38.1409 32.5291 39.0715 32.7086 39.9001 33.0363C40.795 33.3906 41.5549 33.8635 42.1578 34.4403C42.8023 35.0569 43.3864 35.8227 43.8941 36.7163C44.4265 37.6524 44.8558 38.6252 45.1699 39.6061C45.4981 40.6315 45.7741 41.7622 45.9902 42.9666C46.209 44.1893 46.3573 45.3383 46.4296 46.382V46.3829C46.5042 47.4444 46.5418 48.5541 46.5422 49.6815C46.5418 51.8436 45.9311 53.4759 44.6746 54.6716Z" fill="black"/>
</svg>
