<svg width="49" height="15" viewBox="0 0 49 15" fill="none" xmlns="http://www.w3.org/2000/svg">
<path d="M19.5106 0.249268L17.0342 14.7817H20.9948L23.4732 0.249268H19.5106Z" fill="black"/>
<path d="M13.7146 0.26563L9.83547 10.1763L9.42189 8.67989C8.65687 6.87684 6.48505 4.28736 3.9353 2.65544L7.48233 14.7746L11.6732 14.7675L17.9105 0.262573L13.7146 0.26563Z" fill="black"/>
<path d="M7.91715 1.30577C7.68693 0.420538 7.0197 0.156701 6.19151 0.125122H0.0509338L0 0.414426C4.77861 1.57368 7.94058 4.36689 9.25263 7.72546L7.91715 1.30577Z" fill="black"/>
<path d="M31.5008 3.03565C32.7966 3.01528 33.7358 3.29847 34.4651 3.59185L34.8227 3.75993L35.3585 0.610186C34.5741 0.315789 33.3446 0 31.8105 0C27.8967 0 25.1382 1.97114 25.1168 4.79592C25.0913 6.88319 27.0818 8.04856 28.5854 8.74431C30.1286 9.45739 30.6461 9.9107 30.639 10.5474C30.6268 11.5202 29.4084 11.9664 28.2706 11.9664C26.6845 11.9664 25.8421 11.7474 24.5412 11.2054L24.0308 10.9732L23.4736 14.2258C24.4006 14.6323 26.111 14.9817 27.8865 15C32.0499 15 34.7555 13.0523 34.784 10.034C34.8013 8.38268 33.7449 7.12258 31.456 6.08862C30.0706 5.41426 29.223 4.96604 29.2312 4.28557C29.2312 3.68149 29.9504 3.03565 31.5008 3.03565Z" fill="black"/>
<path d="M45.5225 0.265747H42.4624C41.512 0.265747 40.8051 0.524491 40.3874 1.47186L34.5066 14.79H38.6658C38.6658 14.79 39.3443 12.9992 39.4981 12.607C39.9534 12.607 43.9945 12.6131 44.5701 12.6131C44.6883 13.1204 45.0529 14.79 45.0529 14.79H48.7273L45.5225 0.265747ZM40.638 9.63247C40.964 8.79817 42.2159 5.57101 42.2159 5.57101C42.1945 5.61074 42.5388 4.7306 42.7436 4.18357L43.0105 5.43655C43.0105 5.43655 43.7694 8.90615 43.9283 9.63247H40.638Z" fill="black"/>
</svg>
