<svg width="11" height="11" viewBox="0 0 11 11" fill="none" xmlns="http://www.w3.org/2000/svg">
<g filter="url(#filter0_d)">
<path d="M9.64423 3.84615H9.01442V3.07692L8.66827 1.92308H8.05289V1.15385L7.69231 0H2.30769L1.94712 1.15385V1.92308H1.33173L0.985577 3.07692V3.84615H0.355769L0 5V8.97356C0 9.53846 0.846154 10 1.41106 10H8.97596C9.5 10 10.0024 9.52644 10.0024 9.01442V5L9.64423 3.84615ZM3.07692 1.15385H6.92308V1.92308H3.07692V1.15385ZM2.09135 3.07692H7.90865V3.84615H2.09135V3.07692ZM8.87019 5.76923H6.88462C6.70673 6.64663 5.93029 7.30769 5 7.30769C4.06971 7.30769 3.29327 6.64663 3.11539 5.76923H1.12981V5H8.87019V5.76923Z" fill="white"/>
</g>
<defs>
<filter id="filter0_d" x="0" y="0" width="10.0024" height="10.5" filterUnits="userSpaceOnUse" color-interpolation-filters="sRGB">
<feFlood flood-opacity="0" result="BackgroundImageFix"/>
<feColorMatrix in="SourceAlpha" type="matrix" values="0 0 0 0 0 0 0 0 0 0 0 0 0 0 0 0 0 0 127 0"/>
<feOffset dy="0.5"/>
<feColorMatrix type="matrix" values="0 0 0 0 0.296943 0 0 0 0 0.296943 0 0 0 0 0.296943 0 0 0 1 0"/>
<feBlend mode="normal" in2="BackgroundImageFix" result="effect1_dropShadow"/>
<feBlend mode="normal" in="SourceGraphic" in2="effect1_dropShadow" result="shape"/>
</filter>
</defs>
</svg>
